<svg t="1728071238053" class="icon" viewBox="0 0 1024 1024" version="1.1" xmlns="http://www.w3.org/2000/svg" p-id="8448" width="500" height="500"><path d="M973.180137 514.739063L509.228934 50.787861c-11.980201-12.082596-28.260987-18.840658-45.258537-18.738263H96.065593c-35.326234 0-63.9968 28.670566-63.996801 63.9968v368.007199c0 16.99755 6.655667 33.278336 18.738263 45.258537l463.951203 463.951203c24.984351 24.984351 65.532723 24.984351 90.517074 0l368.0072-368.0072c24.881956-24.984351 24.881956-65.532723-0.102395-90.517074zM271.979997 335.957602c-44.132193 0-79.970401-35.838208-79.970402-79.970401s35.838208-79.970401 79.970402-79.970402c44.132193 0 79.970401 35.838208 79.970401 79.970402 0.102395 44.132193-35.735813 79.970401-79.970401 79.970401z" fill="#2c2c2c" p-id="8449"></path><path d="M901.298931 469.275736L469.294931 901.279736l80.072796 79.970401h31.947203l399.954402-399.954402v-31.947202z" fill="#2c2c2c" p-id="8450"></path><path d="M112.039194 335.957602H31.966398c-8.80596 0.20479-15.768812 7.577221-15.564022 16.383181 0.20479 8.498775 7.065247 15.359232 15.564022 15.564022h79.970401c8.80596-0.20479 15.768812-7.577221 15.564022-16.383181-0.102395-8.498775-6.962852-15.359232-15.461627-15.564022zM511.993596 480.027199H383.999996c-8.80596 0.20479-15.768812 7.577221-15.564022 16.38318 0.20479 8.498775 7.065247 15.359232 15.564022 15.564022h127.9936c8.80596 0.20479 16.178391-6.758062 16.383181-15.564022s-6.758062-16.178391-15.564022-16.38318c-0.307185-0.102395-0.511974-0.102395-0.819159 0z m63.9968-127.993601h-15.973601c-8.80596 0-15.973601 7.167642-15.973601 15.973602s7.167642 15.973601 15.973601 15.973601h15.973601c8.80596 0 15.973601-7.167642 15.973602-15.973601s-7.167642-15.973601-15.973602-15.973602z m15.973602-208.066396h-96.046398c-8.80596 0-15.973601 7.167642-15.973601 15.973601s7.167642 15.973601 15.973601 15.973601h96.046398c8.80596 0 15.973601-7.167642 15.973601-15.973601s-7.167642-15.973601-15.973601-15.973601z m-383.980801-48.023199h-32.049598c-8.80596 0.20479-15.768812 7.577221-15.564022 16.383181 0.20479 8.498775 7.065247 15.359232 15.564022 15.564021H207.880802c8.80596 0.20479 16.178391-6.758062 16.383181-15.564021 0.20479-8.80596-6.758062-16.178391-15.564022-16.383181h-0.716764zM383.999996 719.938403h-79.970402c-8.80596 0-15.973601 7.167642-15.973601 15.973601s7.167642 15.973601 15.973601 15.973602H383.999996c8.80596 0 15.973601-7.167642 15.973601-15.973602s-7.167642-15.973601-15.973601-15.973601z m352.033598 79.970402h-79.970401c-8.80596 0-15.973601 7.167642-15.973602 15.973601s7.167642 15.973601 15.973602 15.973601h79.970401c8.80596 0 15.973601-7.167642 15.973601-15.973601s-7.167642-15.973601-15.973601-15.973601z m-64.099195-143.967202h48.023199c8.80596 0.20479 16.178391-6.758062 16.383181-15.564022s-6.758062-16.178391-15.564022-16.383181H671.934399c-8.80596-0.20479-16.178391 6.758062-16.383181 15.564022s6.758062 16.178391 15.564022 16.383181h0.819159z" fill="#2c2c2c" p-id="8451"></path><path d="M995.809405 492.109795L531.858203 28.158592C513.939099 10.137093 489.466723 0 463.970397 0H96.065593C43.025045 0 0.019195 43.00585 0.019195 96.046398v368.007199c0 25.496325 10.137093 49.866307 28.158592 67.887806l463.951202 463.951202c37.476526 37.476526 98.299085 37.476526 135.775612 0l368.007199-368.007199c37.374131-37.476526 37.374131-98.299085-0.102395-135.775611zM470.011695 883.258237L73.436324 486.580471c-6.041298-5.938903-9.420329-14.130493-9.420329-22.629269V96.046398c0-17.714314 14.335283-31.947203 31.947203-31.947203h368.007199c8.498775 0 16.587971 3.379031 22.629269 9.420329L883.277432 469.9925 470.011695 883.258237zM950.550868 582.626869L582.646064 950.531673c-12.492175 12.492175-32.766362 12.492175-45.258538 0l-44.644167-44.644167 413.163342-413.265737 44.644167 44.644168c12.59457 12.59457 12.59457 32.868757 0 45.360932zM271.979997 159.940803c-53.040548 0-95.944003 43.00585-95.944003 96.046398s43.00585 95.944003 96.046398 95.944002 95.944003-43.00585 95.944003-96.046397c0-52.938153-43.00585-95.944003-96.046398-95.944003z m0 160.043198c-35.326234 0-63.9968-28.670566-63.9968-63.9968s28.670566-63.9968 63.9968-63.996801 63.9968 28.670566 63.9968 63.996801-28.670566 63.9968-63.9968 63.9968z" fill="#2c2c2c" p-id="8452"></path></svg>