<svg t="1727943332955" class="icon" viewBox="0 0 1024 1024" version="1.1" xmlns="http://www.w3.org/2000/svg" p-id="4336" width="500" height="500"><path d="M731.546 588.952C782.032 501.857 806 432.632 806 384c0-162.372-131.628-294-294-294S218 221.628 218 384c0 48.633 23.968 117.857 74.454 204.952C341.914 674.28 415.131 773.963 512 887.432c96.869-113.469 170.085-213.153 219.546-298.48zM549.64 981.52a50 50 0 0 1-4.727 4.727c-20.788 18.177-52.375 16.06-70.553-4.727C243.453 717.45 128 518.277 128 384 128 171.923 299.923 0 512 0s384 171.923 384 384c0 134.277-115.453 333.45-346.36 597.519zM512 544c88.366 0 160-71.634 160-160s-71.634-160-160-160-160 71.634-160 160 71.634 160 160 160z m0-90c-38.66 0-70-31.34-70-70s31.34-70 70-70 70 31.34 70 70-31.34 70-70 70z" p-id="4337"></path></svg>