<svg t="1728061671403" class="icon" viewBox="0 0 1024 1024" version="1.1" xmlns="http://www.w3.org/2000/svg" p-id="14056" width="500" height="500"><path d="M512 0C229.282909 0 0 229.282909 0 512s229.282909 512 512 512 512-229.282909 512-512S794.717091 0 512 0z m-0.930909 48.826182h0.093091a3.258182 3.258182 0 0 0 0.837818 0c211.688727 0 390.237091 142.056727 445.44 335.918545a805.934545 805.934545 0 0 1-196.096 255.813818c-39.424 34.117818-82.525091 64.372364-129.861818 85.736728-47.383273 21.317818-99.421091 33.466182-151.133091 30.533818a260.654545 260.654545 0 0 1-105.704727-29.463273 850.664727 850.664727 0 0 0 236.357818-191.767273c44.497455-51.944727 83.362909-111.243636 98.443636-178.408727 7.68-33.605818 8.843636-68.887273 1.861818-102.725818a189.858909 189.858909 0 0 0-46.498909-91.461818 186.786909 186.786909 0 0 0-86.341818-51.106909 225.745455 225.745455 0 0 0-100.212364-3.630546c-66.234182 12.148364-125.346909 50.548364-172.450909 98.117818-83.176727 83.781818-134.516364 202.007273-125.067636 320 4.747636 58.973091 24.389818 116.875636 58.274909 165.422546 6.656 9.541818 14.056727 18.525091 21.736727 27.182545a755.339636 755.339636 0 0 1-143.639272 34.397091A462.941091 462.941091 0 0 1 511.069091 48.826182z m3.258182 94.021818c0.186182-0.046545 0.744727 0.093091 0.558545 0.046545 32.209455 0 64.558545 9.821091 90.112 29.184a148.945455 148.945455 0 0 1 49.710546 69.352728 191.767273 191.767273 0 0 1 8.936727 86.016c-6.656 57.856-35.84 111.150545-71.354182 157.928727-63.022545 82.757818-146.897455 149.085091-240.128 195.490909-8.843636 4.421818-17.966545 8.704-27.089454 12.753455a238.033455 238.033455 0 0 1-48.872728-60.276364c-27.461818-48.593455-36.491636-106.309818-31.185454-162.071273 5.399273-55.808 24.482909-109.661091 50.362182-159.650909 29.928727-57.902545 70.562909-112.546909 127.162181-143.825454a192.698182 192.698182 0 0 1 91.834182-24.994909z m457.541818 316.974545c1.954909 17.082182 3.304727 34.397091 3.304727 51.991273 0 255.860364-207.220364 463.266909-463.127273 463.266909a461.591273 461.591273 0 0 1-353.28-164.305454 844.241455 844.241455 0 0 0 147.549091-49.338182c21.457455 16.104727 45.009455 29.509818 70.144 39.098182 74.007273 28.392727 157.882182 24.203636 232.541091-1.629091 74.612364-25.832727 140.613818-72.098909 198.097455-125.905455a850.106182 850.106182 0 0 0 164.770909-213.178182z" p-id="14057"></path></svg>