<svg t="1728061601349" class="icon" viewBox="0 0 1373 1024" version="1.1" xmlns="http://www.w3.org/2000/svg" p-id="12209" width="500" height="500"><path d="M142.244218 4.679086c9.070228 0.539895 17.81652-2.267557 26.850756-1.907627 34.823199-0.485905 69.664394-0.557891 104.487592-0.05399 6.622707 0.197961 13.353392-0.449912 19.832126 1.259754 10.132021 1.169772 20.426011 0 30.504043 1.979614 18.230439 0.377926 36.532865 0.413919 54.511353 3.707275 8.224394 0.791845 16.53877 0.125975 24.709174 1.475712 8.692302 0.269947 16.952689 3.32935 25.698981 2.915431 13.785308 0.035993 26.886749 4.985026 40.672056 4.877047 7.342566 0.503902 14.199227 3.94123 21.649771 3.707276 8.24239-0.035993 15.926889 3.563304 24.11529 3.869244 8.944253 0.719859 17.366608 4.175185 26.364851 4.697083 20.587979 4.535114 41.229947 8.90826 61.727944 13.839297 49.25638 12.867487 98.476766 27.336661 144.475782 49.508331 0.503902 15.422988-1.0258 31.187909 3.347346 46.214973 1.889631 17.438594 6.946643 34.373286 13.443374 50.624113 8.926257 22.351634 22.963515 44.199367 44.847241 55.663128 5.902847 2.35754 11.751705 5.57891 18.248436 5.758875 7.180598 0.485905 14.415185-0.107979 21.595782 0.521898 6.838664 1.799649 14.091248 0.629877 20.821933 3.059403 10.096028 0.881828 20.372021 0.449912 30.378067 2.321546 8.404359 2.537504 17.51058 1.115782 25.788963 4.283164 24.961125 5.003023 49.760281 11.733708 73.137715 21.937715 2.483515 0.899824 5.182988 0.485905 7.702496-0.071986-2.069596-5.884851-2.141582-11.895677 0.737856-17.492583 4.769069 6.532724 7.162601 14.577153 12.669525 20.659964 8.818278 9.862074 20.264042 18.140457 33.293498 21.235853-0.557891-6.928647-3.671283-14.307206 0.143972-20.857926 1.097786 0.107979 3.27536 0.341933 4.373145 0.449912 7.432548 17.762531 20.012091 35.003163 38.512478 42.147768 0.431916-7.234587-0.629877-14.685132 2.285554-21.541793 5.111002 7.63051 9.160211 15.962882 15.063058 23.071494 7.450545 9.124218 16.772724 16.628752 26.77877 22.78355 9.862074 0.845835 19.778137-0.845835 29.658207-0.017996 9.304183 13.839297 16.790721 28.866362 26.526819 42.435711 2.537504 3.581301 6.010826 6.60471 7.63051 10.779895 0.161968 4.103199-0.395923 8.206397-0.557891 12.309596 11.967663 11.013849 24.853146 21.559789 40.060176 27.75058 7.468541 2.483515 14.829104 5.308963 22.657574 6.478734-8.116415 9.142214-19.670158 14.199227-28.272478 22.83754-2.141582 2.627487-5.470931 2.249561-8.476344 2.051599-20.983902-23.647381-47.20478-42.777645-76.503058-54.7813-11.013849-5.27297-23.701371-10.419965-29.406257-22.045695-4.733076-6.982636-1.0258-15.944886-4.013216-23.467416-0.863831-3.257364-4.91304-3.63529-7.342566-5.27297-51.919859-24.025308-104.163656-48.068612-159.196907-64.121477-17.258629-5.021019-34.805202-8.54833-52.53174-11.463761 2.375536-0.377926 4.787065-0.557891 7.180598-0.899824-10.042039-0.35993-20.336028 0.575888-30.342074-1.295747-10.779895-0.899824-21.595782-0.35993-32.303691 0.97181-11.661722-0.701863-22.675571 3.437329-33.851388 6.100809-32.375677 9.592127-61.13406 31.33188-78.338699 60.486186-13.389385 22.567592-20.390018 48.752478-20.066081 74.955361-0.863831 44.469315 18.644359 88.668682 51.253989 118.866783 28.092513 26.904745 65.399227 42.759649 103.37181 49.382355 7.27058 2.699473 15.099051 1.745659 22.675572 2.627487 20.911916 2.465518 42.255747-1.007803 62.969701 2.807452 17.114657-0.089982 34.193322 1.097786 51.271986 1.925624 16.84471 3.725272 34.409279 2.033603 51.110017 6.658699 7.126608 0.809842 14.433181 0.323937 21.397821 2.411529 8.278383 2.753462 17.312619 1.601687 25.519016 4.787065 39.646257 7.864464 78.770615 19.400211 115.501441 36.514868 33.455466 15.620949 65.07529 36.028963 90.756274 62.753744 29.208295 29.190299 49.778278 66.892935 58.704534 107.169068 0.61188 4.787065 0.575888 9.62812 0.485906 14.469174-3.689279-1.69167-4.121195-5.470931-5.02102-8.90826-21.901722-60.450193-67.864745-110.660387-123.797821-141.66833-27.552619-15.81891-57.588752-26.796766-88.11079-35.309104-8.638313-1.439719-16.790721-5.920844-25.770967-3.977223 4.679086 5.182988 12.039649 6.622707 17.780527 10.347979 54.223409 28.794376 95.741301 77.61884 122.358102 132.328155 20.462004 40.762039 32.753603 85.123374 40.528084 129.808646 0.809842 5.722882 0.215958 11.643726 2.123586 17.20464 2.555501 12.651529 2.231564 25.662988 2.195571 38.530475l-3.257364-0.71986c-0.66587-7.972443-1.007803-16.088858-3.761265-23.665378-2.429525-15.368998-6.766678-30.324077-11.013849-45.26116-18.338418-60.990088-46.610896-119.874587-88.16478-168.555079-18.446397-20.605975-39.250334-39.862214-64.355431-51.991845-35.938981-18.48239-74.865378-30.827979-114.421652-38.260527-9.232197 0-17.798524-4.139192-27.030721-3.99522-11.409772-0.521898-22.495606-2.807452-33.815395-3.725272-12.129631-2.159578-24.637188 0.179965-36.694833-2.465519-7.090615-0.629877-14.289209-0.089982-21.253849-1.871634-18.770334-1.043796-37.702636 0.503902-56.328998-2.591494-5.093005-1.727663-10.509947-1.493708-15.764921-2.033603-46.736872-9.664112-91.1342-34.121336-121.512267-71.338067-18.410404-21.793743-31.925764-47.834657-38.890404-75.495255-0.647873-6.406749-2.951424-12.471564-3.959227-18.78833-0.791845-14.811107-0.593884-29.640211-0.179965-44.433322-0.017996-8.476344 3.761265-16.412794 3.833251-24.871142 6.262777-34.679227 21.361828-68.584605 46.556907-93.761687 16.520773-16.970685 36.262917-30.306081 55.753111-43.56949 0.737856-4.625097-2.375536-8.386362-3.94123-12.471565-17.762531-41.769842-34.427276-84.097575-47.438735-127.631072-2.393533-5.434938-0.953814-12.273603-5.200984-16.826713-3.905237-3.005413-8.710299-4.391142-13.20942-6.190791-67.288858-26.1129-137.133216-45.279156-207.643445-59.892302-9.448155-1.403726-18.554376-4.427135-28.146502-5.182988-10.941863-3.869244-22.78355-2.879438-33.725413-6.784675-8.494341-0.179965-16.736731-2.051599-24.943129-3.99522-13.51536 0.143972-26.328858-4.499121-39.772232-5.057012-10.347979 0-20.17406-4.337153-30.576028-3.905237-12.219613 0.395923-23.917329-4.211178-36.118945-3.851248-8.332373-0.053989-16.574763-1.33174-24.889139-1.835641-8.800281-2.843445-18.140457-1.421722-27.192689-2.195572-11.337786-1.241757-22.909525-0.143972-34.04935-2.861441-13.929279 0.197961-27.714587-2.015606-41.62587-1.691669-15.584956-0.233954-31.187909-0.143972-46.754868-0.539895-12.59754-2.645483-25.519016-0.827838-38.242531-1.27775 16.268822-2.843445 32.987557-0.341933 49.148401-3.581301m1032.098418 384.098981c-1.655677 7.396555 3.32935 16.23283 11.517751 15.836907-1.205764-5.6329-4.481125-10.54594-8.008436-14.991072-0.881828-0.215958-2.627487-0.629877-3.509315-0.845835z" p-id="12210"></path><path d="M377.620246 112.316063c10.114025-2.573497 20.659965-0.989807 30.863972-3.059402 58.200633-1.043796 116.437258-1.079789 174.637891 0 10.24 2.249561 20.875923 0.395923 31.02594 3.023409 12.453568 0.395923 24.871142 0.899824 37.234728 2.411529 7.594517 2.393533 15.674938 1.493708 23.467416 2.771459 10.365975-0.233954 20.12007 4.013216 30.46805 3.99522 4.229174-0.377926 8.260387 2.96942 9.322179 6.964639 1.799649 7.234587 5.812865 14.055255 4.643093 21.757751-6.694692 0.107979-13.173427-1.619684-19.562179-3.365343-17.456591-1.205764-34.445272-5.650896-51.973849-5.920843-16.340808-4.157188-33.239508-2.537504-49.796274-4.949034-16.754728-2.987417-33.905378-1.853638-50.876064-2.321546-33.239508-1.871634-66.604991-1.007803-99.898488-0.881828-18.248436 1.421722-36.568858 0.737856-54.853287 1.33174-8.458348-0.377926-16.556766 2.465518-25.015114 2.159578-11.247803 1.99761-22.729561 0.809842-34.067346 1.907627-6.766678 1.673673-13.857293 0.917821-20.605976 2.71747-11.985659 0.953814-24.223269 0.485905-35.920984 3.671283-9.682109 1.061793-19.436204 1.403726-29.136309 2.267557-10.455958 2.96942-21.433814 2.60949-32.087733 4.121195-11.51775 3.527311-23.701371 2.231564-35.309104 5.21898-9.070228 2.519508-18.78833 1.583691-27.768576 4.589104-8.134411 2.105589-16.790721 0.881828-24.745167 3.68928-7.594517 2.447522-15.782917 1.259754-23.341441 3.923233-6.892654 2.267557-14.307206 1.493708-21.181863 3.851248-7.666503 2.915431-16.160844 1.817645-23.80935 4.625097-4.91304 1.583691-10.186011 0.863831-15.20703 0.431915 35.345097-11.805694 72.147909-20.372021 108.428823-29.478242 28.866362-6.730685 57.966678-12.453568 86.995009-18.338418 9.376169 0.179965 18.032478-3.851248 27.318664-4.247171 7.810475-0.30594 15.117047-3.833251 22.963515-3.761265 6.334763-0.089982 12.615536-1.295747 18.716344-2.951424 11.085835-2.087592 22.693568-0.791845 33.581442-3.94123 11.805694-1.295747 23.629385-1.853638 35.489068-2.213568zM664.016309 169.598875c7.738489-2.213568 15.944886-0.647873 23.737364-2.681476 12.651529-0.791845 25.375044-0.251951 38.04457-0.35993 4.553111 8.926257 7.846467 18.608366 9.898066 28.380457-7.072619 0.66587-14.217223 0.071986-21.271845 0.845835-7.486538 1.889631-15.261019 0.683866-22.819543 1.853638-10.24 2.339543-20.875923 0.377926-31.151916 2.573497-8.062425-0.179965-15.692935 2.645483-23.737364 2.735466-7.126608 1.151775-14.523163 0.413919-21.469806 2.645483-9.556134 2.447522-19.634165 1.133779-29.046327 4.157188-3.63529 0.899824-7.306573 1.601687-11.049842 1.69167-7.198594 0.035993-13.857293 3.347346-21.001898 3.833251-9.178207 0.593884-17.690545 4.571107-26.904745 4.913041-38.692443 8.224394-77.222917 17.528576-115.285483 28.578418-7.558524 2.681476-15.81891 3.491318-22.783551 7.648506-22.927522 5.146995-44.937223 13.641336-67.162882 21.14587-18.158453 6.136801-35.938981 13.299402-53.881476 19.976099-14.90109 5.398946-29.154306 12.507557-44.271353 17.258629 0.30594 0.755852 0.647873 1.511705 1.007803 2.24956-4.769069 0.143972-9.394165 1.439719-13.533357 3.797259-17.564569 7.522531-34.931178 15.476977-52.279789 23.485413-5.794868 2.447522-11.067838 7.036626-17.762531 6.24478 11.355782-9.052232 24.11529-16.106854 36.514868-23.593392 114.259684-66.946924 240.43304-111.956134 369.413849-140.102636 9.088225-0.701863 17.564569-4.571107 26.742777-4.733076 9.916063-3.27536 20.372021-3.401336 30.504042-5.560914 10.689912-3.293357 22.135677-1.583691 32.843585-4.769068 8.746292-2.213568 17.834517-1.079789 26.706784-2.213568zM969.884569 212.106573c18.230439 5.920844 35.309104 14.865097 52.369772 23.521406 47.960633 26.130896 93.311775 57.858699 131.42833 97.217012 2.861441 2.96942 6.658699 5.57891 6.820668 10.114025-4.193181 0.35993-8.386362 0.341933-12.54355 0.035993-18.464394-21.433814-40.168155-39.808225-62.069877-57.588752-35.63304-27.498629-74.145518-51.164007-114.367662-71.320071-0.413919-0.503902-1.223761-1.493708-1.637681-1.979613z" p-id="12211"></path></svg>