<svg t="1728061313768" class="icon" viewBox="0 0 1024 1024" version="1.1" xmlns="http://www.w3.org/2000/svg" p-id="7370" width="500" height="500"><path d="M0 72.234667v178.901333h77.994667c54.442667 0 64.085333 36.906667 64.085333 87.808l0.426667 316.245333c0 163.84 146.773333 296.576 327.68 296.576h446.464c57.258667 0 107.349333-35.413333 107.349333-89.941333V371.456c0-163.84-146.773333-296.533333-327.808-296.533333h-187.946667v-0.554667L0 72.234667z m244.181333 109.482666h89.685334V632.32c0 60.288 41.984 107.093333 91.264 107.093333l305.92 1.28c63.829333 0 113.536-43.093333 113.536-94.122666l-0.512-239.232a51.2 51.2 0 0 0-16.469334-38.826667 52.224 52.224 0 0 0-39.125333-16.384c-15.957333 0-27.733333 5.12-39.168 16.384a51.2 51.2 0 0 0-16.469333 38.826667v204.714666h-94.848V407.381333c0-15.530667-5.290667-27.648-16.597334-38.826666a51.541333 51.541333 0 0 0-39.125333-16.384c-15.616 0-27.605333 5.12-38.997333 16.384-11.306667 11.178667-16.64 23.296-16.64 38.826666v204.714667H431.786667V407.381333c0-40.533333 15.36-76.458667 44.458666-105.216a146.986667 146.986667 0 0 1 106.026667-43.605333 146.346667 146.346667 0 0 1 102.954667 41.386667 147.114667 147.114667 0 0 1 103.253333-41.386667c40.704 0 76.928 14.848 106.026667 43.605333a144.426667 144.426667 0 0 1 44.416 105.216l0.384 255.616c-4.48 42.837333-22.997333 80.810667-54.613334 112.512h-0.085333a186.325333 186.325333 0 0 1-135.424 56.064H408.490667v-1.621333c-41.642667-4.394667-78.762667-22.144-109.653334-51.925333-36.053333-35.2-54.656-78.762667-54.656-128.426667V181.76z" p-id="7371"></path></svg>