<svg t="1727945411894" class="icon" viewBox="0 0 1024 1024" version="1.1" xmlns="http://www.w3.org/2000/svg" p-id="10356" width="500" height="500"><path d="M510.72 1.792C229.156571 1.792 0.841143 230.070857 0.841143 511.634286s228.278857 509.878857 509.878857 509.878857c281.563429 0 509.842286-228.278857 509.842286-509.878857S792.283429 1.792 510.72 1.792z m2.450286 70.619429c242.614857 0 439.442286 196.681143 439.442285 439.259428 0 242.614857-196.864 439.259429-439.442285 439.259429-130.998857 0-248.539429-57.417143-329.033143-148.370286 33.097143-25.673143 88.429714-19.419429 156.598857-11.666286 32.658286 3.730286 69.924571 7.972571 108.361143 8.813715 107.410286 0.621714 222.976-18.980571 294.290286-50.139429 46.116571-20.224 75.629714-33.536 94.098285-50.322286 6.656-5.449143 10.130286-14.592 13.714286-24.027428l2.450286-6.4c2.998857-7.643429 7.277714-24.064 9.216-33.060572 0.841143-3.913143 1.28-8.155429-1.499429-10.313143l-9.947428 1.865143c-31.305143 18.761143-109.494857 54.491429-182.710858 55.954286-90.770286 1.901714-273.700571-91.392-292.754285-101.229714l-1.865143-2.267429-37.741714-89.563428c131.657143 86.710857 240.822857 134.692571 324.498285 142.153142 93.037714 8.265143 165.595429-42.532571 196.608-64.219428 6.070857-4.132571 10.678857-7.387429 12.580572-8.082286l2.048-3.401143c-5.156571-32.694857-53.942857-190.902857-90.697143-228.937143-10.203429-10.422857-18.285714-20.553143-34.742857-30.244571-133.010286-77.531429-448.877714-124.233143-463.652572-126.390857l-2.450285 0.768-0.950858 2.048-1.316571 72.850286a1864.155429 1864.155429 0 0 0-92.598857-27.794286c62.829714-77.714286 159.085714-146.688 327.533714-146.688z m116.077714 232.484571a135.643429 135.643429 0 0 1 137.289143 139.885714 134.326857 134.326857 0 0 1-42.825143 93.878857 134.107429 134.107429 0 0 1-96.877714 36.425143 135.899429 135.899429 0 0 1-130.523429-139.885714 133.924571 133.924571 0 0 1 43.008-94.098286 133.376 133.376 0 0 1 89.965714-36.242285z m-3.584 39.789714a93.257143 93.257143 0 0 0-58.221714 25.161143 93.366857 93.366857 0 0 0-29.842286 65.536 94.573714 94.573714 0 0 0 90.88 97.645714c25.234286 0.768 49.152-8.045714 67.584-25.161142a93.842286 93.842286 0 0 0 29.878857-65.718858 94.464 94.464 0 0 0-91.062857-97.462857 96.804571 96.804571 0 0 0-9.216 0z m24.795429 47.140572c23.076571 0 41.691429 12.544 41.691428 27.977143 0 15.36-18.614857 27.977143-41.691428 27.977142-23.149714 0-41.874286-12.653714-41.874286-27.977142 0-15.433143 18.724571-27.977143 41.874286-27.977143z" p-id="10357"></path></svg>