<svg t="1727945603402" class="icon" viewBox="0 0 1024 1024" version="1.1" xmlns="http://www.w3.org/2000/svg" p-id="11437" width="500" height="500"><path d="M512 0c282.581333 0 512 229.418667 512 512s-229.418667 512-512 512S0 794.581333 0 512 229.418667 0 512 0z m139.904 754.346667a68.352 68.352 0 1 0 68.309333 118.4 68.352 68.352 0 0 0-68.309333-118.4z m-139.904-42.666667a199.04 199.04 0 0 1-84.096-18.56L380.416 778.24c39.68 19.584 84.394667 30.762667 131.584 30.762667a294.826667 294.826667 0 0 0 79.36-10.922667 95.573333 95.573333 0 0 1 46.72-67.712 95.744 95.744 0 0 1 81.92-6.656 295.765333 295.765333 0 0 0 88.32-192.64l-97.493333-1.408A199.637333 199.637333 0 0 1 512 711.68zM312.32 512a199.68 199.68 0 0 1 84.906667-163.413333L347.306667 264.917333a297.344 297.344 0 0 0-122.922667 172.16 94.72 94.72 0 0 1 35.413333 74.24c0 30.037333-13.824 56.277333-35.413333 74.197334a297.386667 297.386667 0 0 0 122.922667 172.117333l49.92-83.84A195.626667 195.626667 0 0 1 312.32 512z m-148.48-68.352a68.352 68.352 0 1 0 0 136.661333 68.352 68.352 0 0 0 0-136.661333zM512 312.32a199.637333 199.637333 0 0 1 198.826667 181.973333l97.493333-1.450666a296.490667 296.490667 0 0 0-88.32-192.682667A95.829333 95.829333 0 0 1 591.36 225.706667 303.957333 303.957333 0 0 0 512 215.04c-47.36 0-91.946667 11.093333-131.584 30.72l47.488 85.12A198.954667 198.954667 0 0 1 512 312.32z m139.904-42.709333a68.394667 68.394667 0 0 0 93.397333-24.96 68.437333 68.437333 0 0 0-118.485333-68.309334 68.266667 68.266667 0 0 0 25.088 93.269334z" fill="" p-id="11438"></path></svg>