<svg t="1728061797541" class="icon" viewBox="0 0 1024 1024" version="1.1" xmlns="http://www.w3.org/2000/svg" p-id="16315" width="500" height="500"><path d="M378.327044 615.997446v-103.014401l-74.168321 74.260481c7.9872 5.56032 15.52384 10.1376 22.60992 13.84448 7.08608 3.72736 13.7216 6.6048 19.89632 8.78592 6.17472 2.2016 11.90912 3.6864 17.182721 4.66944 5.2736 0.96256 10.10688 1.39264 14.47936 1.45408m379.217924-8.56064c0.13312 0.1024 0.86016 0.7168 2.19136 1.56672 1.3312 0.86016 3.29728 1.9456 5.89824 3.03104 2.59072 1.08544 5.8368 2.1504 9.74848 2.94912 3.91168 0.79872 8.4992 1.3312 13.7728 1.3312 4.4032 0 9.2672-0.39936 14.592-1.32096 5.3248-0.93184 11.12064-2.4064 17.36704-4.58752a152.053762 152.053762 0 0 0 20.16256-8.82688 213.575682 213.575682 0 0 0 22.947841-14.0288L807.936008 532.418565 621.383686 345.169923l-81.858561 81.879041-110.417921-113.868801L151.982082 587.161606a213.391362 213.391362 0 0 0 22.91712 14.0288c7.17824 3.74784 13.89568 6.63552 20.14208 8.82688 6.2464 2.17088 12.032 3.65568 17.3568 4.57728 5.3248 0.93184 10.17856 1.3312 14.58176 1.3312a68.505601 68.505601 0 0 0 13.76256-1.3312c3.91168-0.79872 7.15776-1.87392 9.758721-2.94912 2.59072-1.08544 4.54656-2.18112 5.888-3.03104 1.3312-0.84992 2.05824-1.46432 2.19136-1.57696l125.102081-125.102081 44.73856-42.905601 123.883522 123.893762 43.27424 44.50304c0.13312 0.1024 0.86016 0.7168 2.19136 1.56672 1.34144 0.86016 3.29728 1.9456 5.89824 3.03104 2.59072 1.08544 5.8368 2.1504 9.74848 2.94912 3.91168 0.79872 8.4992 1.3312 13.78304 1.3312 4.4032 0 9.2672-0.39936 14.592-1.32096 5.3248-0.93184 11.1104-2.4064 17.367041-4.58752a152.371202 152.371202 0 0 0 20.15232-8.82688 213.575682 213.575682 0 0 0 22.9376-14.0288l-99.399681-97.341441 18.50368-18.50368 86.026241 86.016001 50.176001 49.7152m-1.0752-518.860805L1000.85761 512.000005 756.480008 935.424009h-488.960005L23.1424 512.000005 267.520003 88.576001z" p-id="16316"></path><path d="M603.985926 491.376645l-65.095681-64.972801 4.62848-4.6592 65.556481 64.839681z" p-id="16317"></path></svg>