<svg t="1727945382740" class="icon" viewBox="0 0 1024 1024" version="1.1" xmlns="http://www.w3.org/2000/svg" p-id="9321" width="500" height="500"><path d="M373.279603 324.241914c36.285052 30.618137 94.83984 62.536026 145.66011 82.450213-43.715629-31.725925-87.219299-67.485078-130.642985-114.288116 36.145079-77.077241 79.304815-183.536856 123.800295-292.208049 72.546109 185.360507 207.760218 464.315093 388.897534 795.28372-49.210577-27.020826-93.79804-42.40588-139.833225-54.293604 15.257079 8.708333 51.320173 28.388564 74.459743 44.207535 36.553001 24.989215 70.382523 52.315983 102.194431 78.482972 28.394563 52.210003 57.137059 105.499799 86.189497 159.729415-144.484334-83.657981-284.891449-151.425005-399.923423-172.356997 37.658789-208.902-109.738987-332.1504-193.482952-199.181861-32.245826 51.196197-40.966156 135.548045-25.675084 198.228044C259.485393 878.301823 117.18464 956.696812 0.20104 1023.608c136.259909-246.906722 274.02353-497.202796 373.078563-699.366086z" p-id="9322"></path></svg>