<svg t="1728061738726" class="icon" viewBox="0 0 1024 1024" version="1.1" xmlns="http://www.w3.org/2000/svg" p-id="15126" width="500" height="500"><path d="M687.07344 29.713441c-73.564437-26.878698-148.888788-34.142346-222.069244-27.294678-84.827891 6.687676-126.201887 32.926405-123.738006 28.190634-138.713281 49.501602-255.987601 156.024443-310.256972 305.361209-96.667318 265.971117 40.286049 560.10087 305.809187 656.960179 265.715129 96.859308 559.364906-40.318047 656.096221-306.289164 96.731315-265.939119-40.222052-560.068872-305.873184-656.896182zM354.321558 944.837114a455.337945 455.337945 0 0 1-81.628046-39.710076l1.983903 1.119946c123.738006 9.50354 285.266182-18.975081 394.188907-120.922143 0 0 207.605944-165.879965 57.373221-438.122779 0 0 24.222827 109.722685-6.655678 199.958315 0 0-29.438574 122.746054-160.280236 158.360329-192.726665 52.509457-412.300029-82.332012-504.135581-147.736844-6.911665-67.164747-0.767963-136.537386 23.902842-204.278105 36.478233-100.347139 105.08291-178.679345 188.886851-231.252799-20.894988 146.5849-4.351789 281.586361 19.455058 338.127622 31.966452 75.804328 87.451764 164.248044 195.830514 175.575496 108.37875 11.391448 168.087858-90.01164 168.087858-90.01164 55.645305-84.475908 64.348883-205.782032 63.484925-208.72589-0.863958-2.975856-14.815282-10.975468-14.815282-10.975468-37.406188 151.416666-99.0992 201.974217-99.0992 201.974216-97.275288 93.915451-166.167951 28.798605-166.167951 28.798606-74.076412-79.580145-22.174926-208.853884-22.174926-208.853884 29.022594-88.059735 113.498502-216.917493 209.269863-282.450319 15.967227 3.935809 31.99845 6.39969 47.773686 12.127413a458.857774 458.857774 0 0 1 151.96064 92.443522l-0.319985-0.287986c-70.012609 25.566762-183.063133 79.580145-183.063133 79.580145-179.223319 75.516342-191.350731 189.686812-191.350731 189.686812-18.559101 117.658301 74.844375 67.836714 74.844375 67.836714 96.091346-46.813732 143.321058-192.662668 143.321057-192.662667-29.982548-5.727723-53.629402 3.423834-53.629402 3.423834-38.366142 94.715412-116.602352 133.625528-116.602352 133.625527-30.814507 16.287211-37.98216-12.511394-37.98216-12.511394-5.215747-21.598954 22.270921-25.246777 22.270921-25.246777 42.653934-16.607196 69.916613-61.405026 76.124313-79.708139 6.143702-18.335112 17.567149-19.807041 17.567149-19.807041a530.086324 530.086324 0 0 1 109.402701-22.622904l2.335887-0.191991c72.540486-8.927568 183.575108 25.694755 183.575108 25.694756 24.926793 10.015515 48.797636 17.503152 70.012608 23.518861 40.702028 101.723073 47.133717 217.493465 6.81567 328.528087-87.003786 239.348407-351.37498 362.830425-590.531396 275.698645z" p-id="15127"></path></svg>