<svg t="1728070867266" class="icon" viewBox="0 0 1075 1024" version="1.1" xmlns="http://www.w3.org/2000/svg" p-id="2481" width="500" height="500"><path d="M486.58043 972.367932h-22.899578A489.640506 489.640506 0 0 1 0.720514 509.407595a482.619409 482.619409 0 0 1 134.048946-358.616034A482.511392 482.511392 0 0 1 486.58043 0.216034a486.940084 486.940084 0 0 1 486.075949 486.075949c0 13.286076-0.540084 26.896203-1.72827 40.398312a281.924051 281.924051 0 0 0-49.687763-53.144303A418.025316 418.025316 0 0 0 644.285071 102.075949v21.603376a108.016878 108.016878 0 0 1-110.933333 104.020253 108.016878 108.016878 0 0 0-110.933333 104.020253 54.008439 54.008439 0 0 1-55.412659 51.740085 108.016878 108.016878 0 0 0-110.933333 103.696202h291.64557a278.791561 278.791561 0 0 0-87.277637 203.719831 280.843882 280.843882 0 0 0 171.422784 259.240507 485.211814 485.211814 0 0 1-145.2827 22.251476zM93.93908 409.383966a42.234599 42.234599 0 0 0-42.450633 43.206751v0.972152A417.269198 417.269198 0 0 0 409.78043 870.616034v-64.810127a43.206751 43.206751 0 0 0-29.920675-41.370464 104.236287 104.236287 0 0 1-72.479325-100.779747v-34.349367a44.502954 44.502954 0 0 0-12.421941-30.892827L123.751738 422.562025a41.046414 41.046414 0 0 0-29.596624-12.854008z" p-id="2482"></path><path d="M768.072413 460.908017a256 256 0 1 0 256 256 256.216034 256.216034 0 0 0-256-256M742.472413 1024A332.691983 332.691983 0 1 1 1075.164396 691.308017a333.124051 333.124051 0 0 1-332.691983 332.691983" p-id="2483"></path><path d="M881.706168 819.308017a43.206751 43.206751 0 0 1-21.603375-5.832912l-142.798312-82.848945V548.293671a40.398312 40.398312 0 0 1 80.364557 0v143.122363l105.964557 61.56962a34.025316 34.025316 0 0 1 11.989873 49.903797 41.370464 41.370464 0 0 1-33.809283 16.526583" p-id="2484"></path></svg>