<svg t="1727839277203" class="icon" viewBox="0 0 1024 1024" version="1.1" xmlns="http://www.w3.org/2000/svg" p-id="3434" width="500" height="500"><path d="M91.83 661.86c1.87 34.09 30.28 60.65 64.43 60.22h331.23v91.74H360.74c-13.34 0-24.16 10.82-24.16 24.16s10.82 24.16 24.16 24.16h302.53c13.34 0 24.16-10.82 24.16-24.16s-10.82-24.16-24.16-24.16H536.51v-91.74h331.24c34.14 0.43 62.55-26.13 64.43-60.22v-55.32H91.83v55.32zM867.74 161.86H156.26c-34.93-0.39-63.66 27.41-64.43 62.33v328.43h840.34V224.19c-0.77-34.93-29.5-62.72-64.43-62.33z" fill="#a2d8f4" p-id="3435"></path></svg>